<svg xmlns="http://www.w3.org/2000/svg" width="14.833" height="14.833" viewBox="0 0 14.833 14.833"><defs><style>.a{fill:#4285f4;}.a,.b,.c,.d,.e{fill-rule:evenodd;}.b{fill:#34a853;}.c{fill:#fbbc05;}.d{fill:#ea4335;}.e{fill:none;}</style></defs><g transform="translate(-12.065 -12.065)"><g transform="translate(3 3)"><g transform="translate(9.065 9.065)"><path class="a" d="M16.12,8.881a8.527,8.527,0,0,0-.135-1.517H9v2.869h3.991a3.412,3.412,0,0,1-1.48,2.239v1.861h2.4A7.233,7.233,0,0,0,16.12,8.881Z" transform="translate(-1.583 -1.295)"/><path class="b" d="M7.585,16.717a7.081,7.081,0,0,0,4.909-1.8L10.1,13.06a4.474,4.474,0,0,1-6.661-2.35H.957v1.922a7.414,7.414,0,0,0,6.628,4.086Z" transform="translate(-0.168 -1.884)"/><path class="c" d="M3.267,9.7a4.385,4.385,0,0,1,0-2.818V4.958H.789a7.426,7.426,0,0,0,0,6.661L3.267,9.7Z" transform="translate(0 -0.872)"/><path class="d" d="M7.585,2.95A4.007,4.007,0,0,1,10.42,4.059l2.127-2.127A7.128,7.128,0,0,0,7.585,0,7.414,7.414,0,0,0,.957,4.086L3.435,6.007A4.42,4.42,0,0,1,7.585,2.95Z" transform="translate(-0.168)"/><path class="e" d="M0,0H14.833V14.833H0Z"/></g></g></g></svg>